<svg width="91" height="39" viewBox="0 0 91 39" fill="none" xmlns="http://www.w3.org/2000/svg">
<g id="pasha-life">
<g id="Layer1008">
<path id="path121" fill-rule="evenodd" clip-rule="evenodd" d="M5.72583 12.3286V5.63323H16.7225L16.7213 16.504L14.2423 16.5043L8.16988 10.4996L7.87313 10.2052L5.72583 12.3286Z" fill="#007658"/>
<path id="path123" fill-rule="evenodd" clip-rule="evenodd" d="M0.0982056 19.0682L7.87365 11.3798L15.6469 19.0682L13.8951 20.8002L4.88651 20.8005V23.8011L0.0982056 19.0682Z" fill="#00377D"/>
<path id="path125" fill-rule="evenodd" clip-rule="evenodd" d="M5.72583 32.5025H12.4977L10.649 30.6743L10.3525 30.3801L16.7225 24.0829V21.63L5.72623 21.6308L5.72583 32.5025Z" fill="#007658"/>
<path id="path127" fill-rule="evenodd" clip-rule="evenodd" d="M19.3152 38.0683L11.5408 30.3805L19.3152 22.6929L21.0686 24.4261V33.3341L24.1037 33.3329L19.3152 38.0683Z" fill="#00377D"/>
<path id="path129" fill-rule="evenodd" clip-rule="evenodd" d="M32.9033 32.5025H21.9077L21.9089 21.6312H24.3887L30.4615 27.6353L30.7587 27.9283L31.055 27.6353L32.9039 25.8067L32.9033 32.5025Z" fill="#007658"/>
<path id="path131" fill-rule="evenodd" clip-rule="evenodd" d="M38.5321 19.0273L30.7571 26.7152L22.9821 19.0281L24.734 17.2965L33.744 17.2967V14.2931L38.5321 19.0273Z" fill="#00377D"/>
<path id="path133" fill-rule="evenodd" clip-rule="evenodd" d="M32.9036 5.63365V16.505H21.9082V14.0524L27.9814 8.04844L28.278 7.75463L27.9814 7.46043L26.1321 5.63385L32.9036 5.63365Z" fill="#007658"/>
<path id="path135" fill-rule="evenodd" clip-rule="evenodd" d="M27.0899 7.75482L19.3162 15.4406L17.5624 13.7072L17.5613 4.80204L14.527 4.80324L19.3159 0.0682678L27.0899 7.75482Z" fill="#00377D"/>
</g>
<path id="path138" fill-rule="evenodd" clip-rule="evenodd" d="M66.9962 8.4506C66.9962 7.98026 67.3393 7.55913 68.46 7.55913C69.5979 7.55913 70.284 7.77787 71.1074 8.01078L71.8851 6.16665C71.0102 5.79129 70.1583 5.41655 68.3857 5.41655C66.4073 5.41655 64.366 6.33854 64.366 8.46586C64.366 12.2179 69.6779 11.7341 69.6779 13.5313C69.6779 14.2023 69.0661 14.6106 67.7225 14.6106C66.4873 14.6106 65.7612 14.4527 64.7605 14.1095L64.0057 16.0164C64.7605 16.4257 65.7097 16.731 67.2363 16.7886C67.305 17.0645 67.3908 17.358 67.3908 17.6283C67.3908 18.1755 66.5846 18.4881 66.1843 18.7221L67.0877 20.2858C68.0826 19.8787 69.5864 19.1914 69.5864 17.9245C69.5864 17.4869 69.4093 17.0488 69.2376 16.6586H69.2204C70.9587 16.3234 72.4054 15.3392 72.4054 13.4368C72.4054 9.91999 66.9962 9.91999 66.9962 8.4506V8.4506ZM56.8071 11.4384L57.922 7.20695L59.0427 11.4384H56.8071ZM56.0979 5.57317L52.3527 16.571H55.1258L56.1722 13.3521H59.6658L60.7236 16.571H63.4968L59.7516 5.57317H56.0979ZM77.1914 11.4384L78.3064 7.20695L79.4215 11.4384H77.1914ZM80.1304 5.57317H76.4823L72.7314 16.571H75.5046L76.5625 13.3521H80.0561L81.1024 16.571H83.8756L80.1304 5.57317ZM47.7039 11.4225H46.7833V7.64335H48.0813C49.5108 7.64335 49.9683 8.43597 49.9683 9.54057C49.9683 10.5667 49.3678 11.4225 47.7039 11.4225ZM48.4246 5.57317H44.0959V16.571H46.7835V13.4611H47.6069C50.9233 13.4611 52.7187 11.6414 52.7187 9.47891C52.7187 7.02091 50.9233 5.57317 48.4246 5.57317Z" fill="#007658"/>
<path id="path140" fill-rule="evenodd" clip-rule="evenodd" d="M44.156 32.5136H46.7955V28.0465H51.4534V32.5136H54.0928V21.6606H51.4534V26.0662H46.7955V21.6606H44.156V32.5136ZM59.3562 23.9325C58.3315 23.9325 57.1204 24.1014 56.1733 24.4084L56.5615 26.2965C57.4465 26.0969 58.4091 25.9588 58.9836 25.9588C60.3344 25.9588 61.3902 26.2044 61.3746 27.5246H55.8783V28.4457C55.8783 30.9785 56.9341 32.6978 59.6046 32.6978C62.1664 32.6978 63.952 31.6079 63.952 28.1847C63.952 24.8383 62.1509 23.9325 59.3562 23.9325V23.9325ZM61.2972 29.1672C61.2505 30.2723 60.6761 30.8864 59.7911 30.8864C58.9527 30.8864 58.5024 30.1802 58.5335 29.1672H61.2972ZM67.1814 35.8907H69.6502L73.7956 24.1321H71.1872L69.4949 29.1058L69.0757 30.4719L68.7186 29.1058L67.2591 24.1321H64.4799L67.3989 32.5136H68.3304L67.1814 35.8907ZM77.1026 32.6518C78.0342 32.6518 78.9192 32.1759 79.5402 31.7C79.7731 32.4215 80.86 32.5904 81.8847 32.5904C82.0865 32.5904 82.2884 32.5904 82.4902 32.575L82.5833 30.6408C82.102 30.6254 81.8226 30.564 81.8226 30.2877V26.5575C81.8226 24.6694 80.7668 23.9325 78.1429 23.9325C76.7921 23.9325 75.6742 24.2396 74.7116 24.608L75.2239 26.4654C76.0158 26.2505 76.9163 26.0969 77.7547 26.0969C78.8105 26.0969 79.2918 26.3119 79.2918 27.0487V27.5706H77.8168C76.14 27.5706 74.1837 28.0005 74.1837 30.1188C74.1837 31.7921 75.2395 32.6518 77.1026 32.6518ZM77.6461 30.6715C77.1802 30.6715 76.699 30.4566 76.699 29.9653C76.699 29.3514 77.2579 29.1058 78.0187 29.0904L79.2918 29.0597V30.3798C78.7329 30.564 78.1429 30.6715 77.6461 30.6715ZM87.6916 32.7132C88.3126 32.7132 89.4461 32.5597 90.0982 32.3294L89.8498 30.3184C89.2286 30.4566 88.5921 30.564 88.0177 30.564C87.319 30.564 87.0861 30.3644 87.0861 29.7505V26.0202H89.71V24.1321H87.0861V22.4128H84.5087V24.1321H83.2666V26.0202H84.5087V29.9039C84.5087 32.0224 85.6577 32.7132 87.6916 32.7132V32.7132Z" fill="#00377D"/>
</g>
</svg>
