<svg id="Layer_1" enable-background="new 0 0 128 128" height="512" viewBox="0 0 128 128" width="512" xmlns="http://www.w3.org/2000/svg"><path d="m118.225 54.455h-8.45c-.649 0-1.23-.426-1.411-1.034-.864-2.914-2.045-5.761-3.509-8.462-.306-.565-.198-1.277.268-1.737l5.98-5.98c1.36-1.361 1.359-3.574 0-4.935l-11.41-11.399c-.11-.111-.221-.208-.35-.308-1.38-1.053-3.346-.92-4.574.308l-5.978 5.978c-.035.035-.072.066-.12.106-.046.027-.091.06-.135.096l-.096.052c-.165.092-.322.144-.563.17-.293.052-.581-.019-.823-.154-2.672-1.453-5.519-2.634-8.465-3.511-.618-.183-1.033-.75-1.033-1.411v-8.46c0-1.924-1.566-3.49-3.49-3.49h-16.13c-1.919 0-3.48 1.565-3.48 3.49v8.46c0 .649-.426 1.23-1.035 1.412-2.835.842-5.555 1.954-8.118 3.324l-.141.076c-.079.041-.157.082-.203.109-.56.305-1.275.194-1.737-.268l-5.98-5.98c-.126-.126-.27-.25-.36-.308-1.38-1.053-3.347-.92-4.574.308l-11.4 11.4c-1.36 1.36-1.36 3.573 0 4.934l5.98 5.98c.462.462.572 1.176.27 1.733-1.453 2.66-2.635 5.508-3.511 8.464-.182.61-.762 1.036-1.412 1.036h-8.46c-1.924 0-3.49 1.565-3.49 3.49v16.12c0 1.924 1.565 3.49 3.49 3.49h8.46c.651 0 1.231.425 1.412 1.035.876 2.946 2.058 5.793 3.509 8.461.304.561.194 1.275-.268 1.737l-5.98 5.98c-1.354 1.353-1.355 3.565 0 4.934l11.4 11.4c1.229 1.228 3.195 1.362 4.523.345.142-.095.286-.219.412-.345l5.98-5.98c.462-.461 1.176-.572 1.71-.282.073.042.15.083.227.123l.178.096c2.572 1.364 5.292 2.476 8.083 3.305.61.182 1.036.762 1.036 1.412v8.45c0 1.924 1.561 3.49 3.48 3.49h16.13c1.924 0 3.49-1.565 3.49-3.49v-8.45c0-.662.415-1.229 1.035-1.412 2.902-.864 5.749-2.044 8.471-3.514.232-.129.522-.205.815-.15.059.011.042.011.102.011l.218-.976-.113.993.144.045c.023.006.089.027.286.132.044.038.091.071.141.101.047.038.093.076.135.118l5.979 5.98c1.229 1.228 3.193 1.36 4.582.302.124-.096.233-.192.342-.302l11.415-11.404c1.351-1.366 1.35-3.578-.004-4.931l-5.984-5.985c-.461-.455-.569-1.167-.263-1.733 1.464-2.711 2.645-5.558 3.509-8.462.183-.618.75-1.033 1.411-1.033h8.45c1.924 0 3.49-1.566 3.49-3.49v-16.12c-.003-1.924-1.569-3.49-3.493-3.49zm-50.7 45.02c-.01 0-.02 0-.02 0-.49.02-1 .03-1.5.03-18.5 0-33.5-15-33.5-33.5s15-33.5 33.5-33.5c.5 0 1.01.01 1.5.03h.02c17.8.8 31.98 15.48 31.98 33.47s-14.18 32.67-31.98 33.47z" fill="#e6e7e8"/><path d="m66.289 44.619c-4.744-.063-9.244 1.752-12.697 5.145-3.452 3.391-5.358 7.864-5.366 12.594-.01 5.332 2.346 10.339 6.463 13.739 1.969 1.626 3.424 3.851 4.206 6.432l.127.418c-.454.353-.752.898-.752 1.516v4.081c0 2.576 1.654 4.845 4.033 5.672.129 1.443 1.345 2.577 2.82 2.577h1.754c1.476 0 2.691-1.134 2.82-2.577 2.379-.827 4.033-3.096 4.033-5.672v-4.081c0-.618-.298-1.163-.752-1.516l.187-.617c.751-2.479 2.155-4.609 4.059-6.161 4.163-3.394 6.55-8.416 6.55-13.777 0-9.646-7.844-17.619-17.485-17.773z" fill="#e6e7e8"/><path d="m43.008 62.133h-3.933c-.552 0-1 .448-1 1s.448 1 1 1h3.933c.552 0 1-.448 1-1s-.448-1-1-1z" fill="#e6e7e8"/><path d="m92.925 62.133h-3.933c-.552 0-1 .448-1 1s.448 1 1 1h3.933c.552 0 1-.448 1-1s-.447-1-1-1z" fill="#e6e7e8"/><path d="m49.035 47.583c.195.195.451.293.707.293s.512-.098.707-.293c.391-.39.391-1.023 0-1.414l-2.781-2.782c-.391-.391-1.023-.391-1.414 0-.391.39-.391 1.023 0 1.414z" fill="#e6e7e8"/><path d="m82.965 78.684c-.391-.391-1.023-.391-1.414 0s-.391 1.023 0 1.414l2.781 2.781c.195.195.451.293.707.293s.512-.098.707-.293c.391-.391.391-1.023 0-1.414z" fill="#e6e7e8"/><path d="m49.035 78.684-2.781 2.781c-.391.391-.391 1.023 0 1.414.195.195.451.293.707.293s.512-.098.707-.293l2.781-2.781c.391-.391.391-1.023 0-1.414s-1.023-.391-1.414 0z" fill="#e6e7e8"/><path d="m84.332 43.387-2.781 2.782c-.391.391-.391 1.024 0 1.414.195.195.451.293.707.293s.512-.098.707-.293l2.781-2.782c.391-.391.391-1.024 0-1.414-.39-.391-1.023-.391-1.414 0z" fill="#e6e7e8"/><path d="m66 41.141c.552 0 1-.448 1-1v-3.934c0-.552-.448-1-1-1s-1 .448-1 1v3.934c0 .552.448 1 1 1z" fill="#e6e7e8"/><path d="m114.225 51.455h-8.45c-1.09 0-2.06-.71-2.37-1.75-.86-2.9-2.02-5.67-3.43-8.27-.52-.96-.34-2.15.44-2.92l5.98-5.98c.97-.97.97-2.55 0-3.52l-11.41-11.4c-.08-.08-.16-.15-.25-.22-.97-.74-2.37-.67-3.26.22l-5.98 5.98c-.09.09-.19.17-.29.25-.01.01-.03.02-.04.02-.07.06-.16.11-.24.15-.27.15-.56.25-.87.28-.11.02-.22.03-.33.03-.39 0-.79-.09-1.15-.29-2.61-1.42-5.38-2.57-8.27-3.43-1.05-.31-1.75-1.28-1.75-2.37v-8.46c0-1.37-1.12-2.49-2.49-2.49h-16.13c-1.37 0-2.48 1.12-2.48 2.49v8.46c0 1.09-.71 2.06-1.75 2.37-2.76.82-5.41 1.9-7.9 3.23-.12.07-.25.13-.37.2-.96.52-2.15.33-2.92-.44l-5.98-5.98c-.08-.08-.17-.16-.26-.22-.97-.74-2.37-.67-3.26.22l-11.4 11.4c-.97.97-.97 2.55 0 3.52l5.98 5.98c.77.77.96 1.96.44 2.92-1.42 2.6-2.57 5.37-3.43 8.27-.31 1.04-1.29 1.75-2.37 1.75h-8.46c-1.37 0-2.49 1.11-2.49 2.49v16.12c0 1.37 1.12 2.49 2.49 2.49h8.46c1.08 0 2.06.7 2.37 1.75.86 2.89 2.01 5.66 3.43 8.27.52.96.33 2.15-.44 2.92l-5.98 5.98c-.97.97-.97 2.54 0 3.52l11.4 11.4c.89.89 2.29.96 3.26.22.09-.06.18-.14.26-.22l5.98-5.98c.77-.77 1.96-.96 2.92-.44.12.07.25.13.37.2 2.49 1.32 5.14 2.41 7.9 3.23 1.04.31 1.75 1.28 1.75 2.37v8.45c0 1.38 1.11 2.49 2.48 2.49h16.13c1.37 0 2.49-1.11 2.49-2.49v-8.45c0-1.09.7-2.06 1.75-2.37 2.89-.86 5.66-2.02 8.27-3.43.36-.2.76-.29 1.15-.29.11 0 .22.01.33.03.05 0 .1.01.15.02.1.01.19.04.28.07.15.04.3.11.44.19.08.04.17.09.24.15.01 0 .03.01.04.02.1.08.2.16.29.25l5.98 5.98c.89.89 2.29.96 3.26.22.09-.07.17-.14.25-.22l11.41-11.4c.97-.98.97-2.55 0-3.52l-5.98-5.98c-.78-.77-.96-1.96-.44-2.92 1.41-2.61 2.57-5.38 3.43-8.27.31-1.05 1.28-1.75 2.37-1.75h8.45c1.38 0 2.49-1.12 2.49-2.49v-16.12c0-1.38-1.11-2.49-2.49-2.49zm-50.72 44.02c-.49.02-1 .03-1.5.03-18.5 0-33.5-15-33.5-33.5s15-33.5 33.5-33.5c.5 0 1.01.01 1.5.03h.02c17.8.8 31.98 15.48 31.98 33.47s-14.18 32.67-31.98 33.47c-.01 0-.02 0-.02 0z" fill="#fff"/><path d="m49.705 23.605c-2.76.82-5.41 1.9-7.9 3.23-.12.07-.25.13-.37.2-.96.52-2.15.33-2.92-.44l-5.98-5.98c-.08-.08-.17-.16-.26-.22-.97-.74-2.37-.67-3.26.22l-11.4 11.4c-.081.081-.145.171-.212.26.067.089.131.179.212.26l5.98 5.98c.77.77.96 1.96.44 2.92-1.42 2.6-2.57 5.37-3.43 8.27-.31 1.04-1.29 1.75-2.37 1.75h-8.46c-1.37 0-2.49 1.11-2.49 2.49v16.12c0 1.37 1.12 2.49 2.49 2.49h8.46c1.08 0 2.06.7 2.37 1.75.86 2.89 2.01 5.66 3.43 8.27.52.96.33 2.15-.44 2.92l-5.98 5.98c-.97.97-.97 2.54 0 3.52l11.4 11.4c.89.89 2.29.96 3.26.22.09-.06.18-.14.26-.22l5.98-5.98c.77-.77 1.96-.96 2.92-.44.12.07.25.13.37.2 2.49 1.32 5.14 2.41 7.9 3.23 1.04.31 1.75 1.28 1.75 2.37v8.45c0 1.38 1.11 2.49 2.48 2.49h16.13c1.37 0 2.49-1.11 2.49-2.49v-8.45c0-1.09.7-2.06 1.75-2.37 2.89-.86 5.66-2.02 8.27-3.43.36-.2.76-.29 1.15-.29.11 0 .22.01.33.03.05 0 .1.01.15.02.1.01.19.04.28.07.15.04.3.11.44.19.08.04.17.09.24.15.01 0 .03.01.04.02.1.08.2.16.29.25l5.98 5.98c.89.89 2.29.96 3.26.22.09-.07.17-.14.25-.22l11.41-11.4c.97-.98.97-2.55 0-3.52l-5.98-5.98c-.78-.77-.96-1.96-.44-2.92 1.41-2.61 2.57-5.38 3.43-8.27.31-1.05 1.28-1.75 2.37-1.75h8.45c1.38 0 2.49-1.12 2.49-2.49v-16.12c0-1.38-1.11-2.49-2.49-2.49h-8.45c-1.09 0-2.06-.71-2.37-1.75-.86-2.9-2.02-5.67-3.43-8.27-.52-.96-.34-2.15.44-2.92l5.98-5.98c.081-.081.145-.171.212-.26-.067-.089-.131-.179-.212-.26l-11.41-11.4c-.08-.08-.16-.15-.25-.22-.97-.74-2.37-.67-3.26.22l-5.98 5.98c-.09.09-.19.17-.29.25-.01.01-.03.02-.04.02-.07.06-.16.11-.24.15-.27.15-.56.25-.87.28-.11.02-.22.03-.33.03-.39 0-.79-.09-1.15-.29-2.61-1.42-5.38-2.57-8.27-3.43-1.05-.31-1.75-1.28-1.75-2.37v-3-5.46c0-1.37-1.12-2.49-2.49-2.49h-16.13c-1.37 0-2.48 1.12-2.48 2.49v5.46 3c0 1.09-.71 2.06-1.75 2.37zm12.3 4.9c.5 0 1.01.01 1.5.03h.02c17.8.8 31.98 15.48 31.98 33.47s-14.18 32.67-31.98 33.47c-.01 0-.02 0-.02 0-.49.02-1 .03-1.5.03-18.5 0-33.5-15-33.5-33.5s15-33.5 33.5-33.5z" fill="#0089ef"/><path d="m78.775 58.391c0-9.173-7.364-16.627-16.502-16.772-9.226-.147-17.03 7.514-17.047 16.741-.009 5.221 2.368 9.884 6.1 12.966 2.168 1.79 3.711 4.222 4.526 6.913l.393 1.298h11.51l.454-1.497c.786-2.593 2.283-4.933 4.384-6.646 3.771-3.075 6.182-7.756 6.182-13.003z" fill="#d4fbff"/><path d="m56.196 79.537c-.511 0-.926.415-.926.926v4.081c0 2.428 1.729 4.45 4.022 4.907v.51c0 1.012.82 1.832 1.832 1.832h1.754c1.012 0 1.832-.82 1.832-1.832v-.51c2.293-.458 4.022-2.48 4.022-4.907v-4.081c0-.511-.415-.926-.926-.926z" fill="#fa759e"/><path d="m64.509 48.776-7.763 15.566 6.412-.811-2.801 12.195 9.092-16.243-7.254.917z" fill="#6dc9f7"/><g fill="#3a2c60"><path d="m30.824 71.2c-.458-1.553-.8-3.156-1.02-4.763-.075-.548-.58-.931-1.126-.855-.547.075-.93.579-.855 1.126.232 1.706.597 3.408 1.082 5.057.128.436.527.718.959.718.094 0 .188-.014.283-.041.53-.156.833-.712.677-1.242z"/><path d="m114.225 50.455h-8.45c-.649 0-1.23-.426-1.411-1.035-.865-2.916-2.046-5.763-3.509-8.461-.306-.565-.198-1.277.268-1.737l5.98-5.98c.658-.658 1.021-1.534 1.021-2.467s-.362-1.809-1.021-2.467l-11.409-11.398c-.111-.111-.222-.209-.353-.31-1.378-1.053-3.345-.92-4.573.308l-5.98 5.98c-.033.033-.069.064-.115.103-.048.028-.093.061-.138.099l-.097.052c-.165.091-.321.143-.563.17-.292.053-.581-.02-.823-.154-2.672-1.453-5.519-2.634-8.465-3.511-.618-.183-1.033-.75-1.033-1.411v-8.46c0-1.924-1.566-3.49-3.49-3.49h-16.13c-1.919 0-3.48 1.565-3.48 3.49v8.46c0 .649-.426 1.23-1.035 1.412-2.837.843-5.558 1.956-8.121 3.326l-.141.076c-.078.04-.155.081-.2.108-.561.304-1.274.194-1.737-.268l-5.98-5.98c-.126-.127-.271-.251-.361-.308-1.378-1.053-3.345-.92-4.573.308l-11.4 11.399c-.658.658-1.021 1.534-1.021 2.467s.362 1.809 1.021 2.467l5.98 5.98c.461.461.572 1.176.27 1.733-1.454 2.662-2.635 5.51-3.511 8.464-.182.61-.762 1.036-1.412 1.036h-8.46c-1.924 0-3.49 1.566-3.49 3.49v16.12c0 1.924 1.565 3.49 3.49 3.49h8.46c.651 0 1.231.425 1.412 1.035.875 2.943 2.057 5.791 3.509 8.461.304.561.194 1.275-.268 1.737l-5.98 5.98c-1.354 1.354-1.355 3.565 0 4.934l11.4 11.4c1.227 1.228 3.194 1.361 4.521.346.143-.095.287-.219.414-.346l5.98-5.98c.462-.461 1.175-.572 1.71-.282.072.042.147.082.223.121l.182.098c2.572 1.364 5.292 2.476 8.083 3.305.609.181 1.035.762 1.035 1.411v8.45c0 1.924 1.561 3.49 3.48 3.49h16.13c1.924 0 3.49-1.565 3.49-3.49v-8.45c0-.662.415-1.229 1.035-1.411 2.905-.865 5.751-2.045 8.471-3.515.192-.107.422-.164.664-.164.052 0 .104.005.254.024l.221-.976-.116.993.144.045c.028.008.092.03.285.132.044.038.092.072.141.101.047.038.092.076.134.118l5.98 5.98c1.228 1.228 3.192 1.361 4.581.302.125-.097.235-.194.342-.302l11.414-11.404c1.352-1.365 1.35-3.577-.003-4.931l-5.984-5.984c-.461-.455-.569-1.167-.263-1.733 1.464-2.709 2.644-5.556 3.509-8.462.182-.618.749-1.033 1.411-1.033h8.45c1.924 0 3.49-1.566 3.49-3.49v-16.12c.001-1.925-1.565-3.491-3.489-3.491zm1.49 19.61c0 .822-.668 1.49-1.49 1.49h-8.45c-1.556 0-2.894.992-3.328 2.465-.825 2.772-1.953 5.491-3.351 8.079-.727 1.342-.473 3.031.612 4.103l5.98 5.98c.578.578.576 1.524 0 2.105l-11.413 11.403c-.049.05-.099.093-.147.13-.586.446-1.423.391-1.946-.132l-5.98-5.98c-.116-.116-.243-.221-.308-.267-.053-.051-.114-.096-.181-.136-.124-.091-.241-.153-.292-.177-.236-.135-.458-.229-.618-.27-.113-.038-.284-.096-.412-.105-.075-.015-.15-.026-.226-.033-.729-.113-1.467.042-2.066.375-2.588 1.398-5.307 2.526-8.078 3.351-1.476.435-2.467 1.772-2.467 3.329v8.45c0 .821-.668 1.49-1.49 1.49h-16.13c-.816 0-1.48-.668-1.48-1.49v-8.45c0-1.527-1.014-2.896-2.465-3.328-2.665-.792-5.261-1.854-7.679-3.134-.075-.044-.153-.085-.232-.126l-.167-.091c-.508-.275-1.068-.409-1.627-.409-.905 0-1.807.352-2.476 1.021l-5.98 5.98c-.034.033-.069.069-.16.132-.586.446-1.423.391-1.946-.132l-11.396-11.397c-.58-.585-.581-1.532-.003-2.109l5.98-5.98c1.083-1.083 1.334-2.77.611-4.105-1.387-2.55-2.514-5.267-3.35-8.075-.429-1.452-1.798-2.467-3.329-2.467h-8.46c-.821 0-1.49-.668-1.49-1.49v-16.12c0-.822.668-1.49 1.49-1.49h8.46c1.527 0 2.896-1.013 3.329-2.466.836-2.82 1.963-5.537 3.351-8.078.722-1.333.47-3.021-.612-4.103l-5.98-5.98c-.28-.28-.435-.654-.435-1.053 0-.398.154-.772.435-1.053l11.4-11.4c.523-.522 1.359-.58 1.999-.095.038.025.073.062.107.095l5.98 5.98c1.083 1.083 2.77 1.334 4.132.596l.141-.076c.078-.04.155-.081.195-.105 2.411-1.288 5.006-2.349 7.714-3.153 1.451-.433 2.464-1.801 2.464-3.329v-8.46c0-.821.664-1.49 1.48-1.49h16.13c.822 0 1.49.668 1.49 1.49v8.46c0 1.556.991 2.894 2.465 3.329 2.811.836 5.528 1.963 8.07 3.346.49.272 1.056.416 1.635.416.169 0 .338-.016.426-.035.432-.042.856-.177 1.221-.381.089-.045.213-.111.338-.202.042-.025.083-.052.119-.082.129-.103.257-.208.373-.324l5.98-5.98c.523-.523 1.359-.58 1.941-.136.055.042.104.085.154.137l11.41 11.4c.28.28.435.654.435 1.052 0 .399-.154.773-.435 1.053l-5.976 5.976c-1.09 1.076-1.344 2.766-.616 4.108 1.397 2.577 2.525 5.295 3.351 8.079.432 1.451 1.801 2.465 3.328 2.465h8.45c.821 0 1.49.668 1.49 1.49v16.119z"/><path d="m63.546 27.536c-.503-.021-1.027-.031-1.541-.031-19.023 0-34.5 15.477-34.5 34.5 0 .552.448 1 1 1s1-.448 1-1c0-17.92 14.58-32.5 32.5-32.5.486 0 .983.01 1.456.029 17.408.772 31.044 15.035 31.044 32.471s-13.636 31.699-31.041 32.471c-.476.02-.973.029-1.459.029-12.61 0-24.188-7.395-29.498-18.84-.233-.501-.829-.718-1.328-.486-.501.232-.719.827-.486 1.328 5.636 12.148 17.927 19.999 31.312 19.999.514 0 1.038-.01 1.544-.031 18.479-.82 32.956-15.96 32.956-34.469s-14.476-33.65-32.959-34.47z"/><path d="m44.226 58.358c-.01 5.332 2.346 10.339 6.463 13.739 1.969 1.626 3.424 3.851 4.206 6.432l.127.418c-.454.353-.752.898-.752 1.516v4.081c0 2.576 1.654 4.845 4.033 5.672.13 1.442 1.345 2.577 2.82 2.577h1.754c1.476 0 2.691-1.134 2.82-2.577 2.379-.828 4.033-3.096 4.033-5.672v-4.081c0-.618-.298-1.163-.752-1.516l.187-.617c.751-2.479 2.155-4.609 4.059-6.161 4.163-3.394 6.551-8.415 6.551-13.777 0-9.646-7.844-17.619-17.486-17.772-4.754-.073-9.243 1.752-12.697 5.145-3.452 3.39-5.358 7.863-5.366 12.593zm12.043 26.185v-.71h11.461v.71c0 .159-.023.314-.041.469h-11.378c-.019-.155-.042-.309-.042-.469zm11.461-2.71h-11.461v-1.297h11.461zm-3.217 6.637c-.467.093-.804.503-.804.98v.51c0 .459-.373.832-.832.832h-1.754c-.458 0-.832-.373-.832-.832v-.509c0-.477-.336-.887-.804-.98-.961-.192-1.781-.728-2.355-1.458h9.736c-.574.73-1.394 1.265-2.355 1.457zm-2.257-45.851c8.557.136 15.519 7.212 15.519 15.772 0 4.758-2.119 9.215-5.814 12.227-2.213 1.804-3.842 4.27-4.709 7.131l-.238.787h-10.027l-.178-.587c-.897-2.959-2.573-5.516-4.847-7.394-3.655-3.018-5.746-7.461-5.737-12.193.007-4.191 1.701-8.159 4.768-11.171 3.069-3.015 7.061-4.646 11.263-4.572z"/><path d="m56.872 65.334 4.991-.631-2.48 10.8c-.111.485.15.978.615 1.157.118.045.24.067.359.067.353 0 .692-.188.873-.512l9.093-16.243c.185-.329.167-.734-.043-1.047s-.578-.481-.955-.433l-5.877.743 2.043-10.262c.098-.492-.183-.979-.657-1.142s-.995.052-1.219.5l-7.763 15.565c-.165.33-.134.724.08 1.025.212.3.574.46.94.413zm5.198-9.426-.855 4.297c-.063.315.03.642.25.877.219.236.539.354.857.311l5.289-.668-4.715 8.423 1.238-5.392c.073-.318-.014-.652-.233-.895-.191-.211-.461-.329-.742-.329-.042 0-.083.002-.125.008l-4.557.576z"/><path d="m39.008 60.133c.552 0 1-.448 1-1s-.448-1-1-1h-3.933c-.552 0-1 .448-1 1s.448 1 1 1z"/><path d="m88.926 60.133c.552 0 1-.448 1-1s-.448-1-1-1h-3.934c-.552 0-1 .448-1 1s.448 1 1 1z"/><path d="m43.668 39.387c-.391-.391-1.023-.391-1.414 0s-.391 1.023 0 1.414l2.781 2.781c.195.195.451.293.707.293s.512-.098.707-.293c.391-.391.391-1.023 0-1.414z"/><path d="m78.965 74.684c-.391-.391-1.023-.391-1.414 0s-.391 1.023 0 1.414l2.781 2.781c.195.195.451.293.707.293s.512-.098.707-.293c.391-.391.391-1.023 0-1.414z"/><path d="m42.254 78.879c.195.195.451.293.707.293s.512-.098.707-.293l2.781-2.781c.391-.391.391-1.023 0-1.414s-1.023-.391-1.414 0l-2.781 2.781c-.391.391-.391 1.024 0 1.414z"/><path d="m81.746 39.387c-.391-.391-1.023-.391-1.414 0l-2.781 2.781c-.391.391-.391 1.023 0 1.414.195.195.451.293.707.293s.512-.098.707-.293l2.781-2.781c.391-.39.391-1.023 0-1.414z"/><path d="m63 36.141v-3.934c0-.552-.448-1-1-1s-1 .448-1 1v3.934c0 .552.448 1 1 1s1-.448 1-1z"/></g></svg>